# Wavefront OBJ file made by Mineways version 12.08, http://mineways.com
# World: Temp
# Terrain file name: Z:\home\aik\Applications\mineways\terrainExt.png
# Color scheme: Standard
# Wed Sep 24 06:45:59 2025

# Selection location min to max: 15, 8, -7 to 26, 255, 8
#   Non-empty selection location min to max: 15, 8, -7 to 26, 8, 8

# Set render type: Wavefront OBJ absolute indices
# Units for the model vertex data itself: meters

# 652 vertices, 566 faces (1132 triangles), 156 blocks, 36 billboards/bits
# block dimensions: X=13 by Y=2 (height) by Z=16 blocks
# Elevation shading: no
# Lighting: no
# Transparent water: no
# Map grid: no
# File type: Export individual textures to directory tex
# Texture output RGB: YES
# Texture output A: YES
# Texture output RGBA: YES
# Export separate types: YES
# Export individual blocks: no
#   Material per family: YES
#   Split by block type: YES
# Make groups objects: no
# Custom material: YES
# Export lesser blocks: YES
# Fatten lesser blocks: no
# Simplify mesh: no
# Double all billboard faces: no
# Create composite overlay faces: no
# Center model: YES
# Use biomes: no
# Create block faces at the borders: YES
# Tree leaves solid: no
# Rotate model 0.000000 degrees
# Make Z the up direction instead of Y: no
# Scale model by making each block 1000 mm high
# Data operation options:
#   Fill air bubbles: no; Seal off entrances: no; Fill in isolated tunnels in base of model: no
#   Connect parts sharing an edge: no; Connect corner tips: no; Weld all shared edges: no
#   Delete floating objects: trees and parts smaller than 16 blocks: no
#   Hollow out bottom of model, making the walls 1000 mm thick: no; Superhollow: no
# Melt snow blocks: no
#   Debug: show separate parts as colors: no
#   Debug: show weld blocks in bright colors: no

# Full world path: Z:\home\aik\Temps\Temp
# Full terrainExt.png path: Z:\home\aik\Applications\mineways\terrainExt.png
# Full current path: Z:\home\aik\Applications\mineways

# COMMON_MC_OBJ_START
# version: 1
# exporter: mineways
# world_name: Temp
# world_path: Z:\home\aik\Temps\Temp
# export_bounds_min: (15, 8, -7)
# export_bounds_max: (26, 255, 8)
# export_offset: (-21.000000, -8.000000, -1.000000)
# block_scale: 1
# block_origin_offset: (0.000000, 0.000000, 0.000000)
# z_up: false
# texture_type: INDIVIDUAL_TILES
# has_split_blocks: true
# COMMON_MC_OBJ_END

mtllib dreamT.mtl

o Temp__15_8_-7_to_26_255_8
vn -1 0 0
vn 0 -1 0
vn 0 0 -1
vn 1 0 0
vn 0 1 0
vn 0 0 1
vn -0.707107 0 -0.707107
vn -0.707107 0 0.707107
vn 0.707107 0 -0.707107
vn 0.707107 0 0.707107
vn -0.707107 -0.707107 0
vn 0 -0.707107 -0.707107
vn 0.707107 -0.707107 0
vn 0 -0.707107 0.707107
vn -0.707107 0.707107 0
vn 0 0.707107 -0.707107
vn 0.707107 0.707107 0
vn 0 0.707107 0.707107
vn -0.92388 0 -0.382683
vn -0.92388 0 0.382683
vn 0.92388 0 -0.382683
vn 0.92388 0 0.382683
vn -0.382683 0 -0.92388
vn -0.382683 0 0.92388
vn 0.382683 0 -0.92388
vn 0.382683 0 0.92388
vn -0.397273 0.9177 0
vn 0.397273 -0.9177 0
vn 0.397273 0.9177 0
vn -0.397273 -0.9177 0
vn 0 0.9177 -0.397273
vn 0 -0.9177 0.397273
vn 0 0.9177 0.397273
vn 0 -0.9177 -0.397273
vn -0.440932 0.897541 0
vn 0.440932 -0.897541 0
vn 0.440932 0.897541 0
vn -0.440932 -0.897541 0
vn 0 0.897541 -0.440932
vn 0 -0.897541 0.440932
vn 0 0.897541 0.440932
vn 0 -0.897541 -0.440932
vt 0.000000000 0.000000000
vt 1.000000000 0.000000000
vt 0.000000000 0.937500000
vt 1.000000000 0.937500000
vt 0.000000000 1.000000000
vt 1.000000000 1.000000000
v -6 0 -8
v -6 0 -7
v -6 0.9375 -8
v -6 0.9375 -7
v -5 0 -8
v -5 0 -7
v -5 0.9375 -8
v -5 0.9375 -7
v -6 0 -7
v -6 0 -6
v -6 0.9375 -7
v -6 0.9375 -6
v -5 0 -7
v -5 0 -6
v -5 0.9375 -7
v -5 0.9375 -6
v -6 0 -6
v -6 0 -5
v -6 0.9375 -6
v -6 0.9375 -5
v -5 0 -6
v -5 0 -5
v -5 0.9375 -6
v -5 0.9375 -5
v -5 0 -8
v -5 0 -7
v -5 0.9375 -8
v -5 0.9375 -7
v -4 0 -8
v -4 0 -7
v -4 0.9375 -8
v -4 0.9375 -7
v -5 0 -7
v -5 0 -6
v -5 0.9375 -7
v -5 0.9375 -6
v -4 0 -7
v -4 0 -6
v -4 0.9375 -7
v -4 0.9375 -6
v -5 0 -6
v -5 0 -5
v -5 0.9375 -6
v -5 0.9375 -5
v -4 0 -6
v -4 0 -5
v -4 0.9375 -6
v -4 0.9375 -5
v -4 0 -8
v -4 0 -7
v -4 0.9375 -8
v -4 0.9375 -7
v -3 0 -8
v -3 0 -7
v -3 0.9375 -8
v -3 0.9375 -7
v -4 0 -7
v -4 0 -6
v -4 0.9375 -7
v -4 0.9375 -6
v -3 0 -7
v -3 0 -6
v -3 0.9375 -7
v -3 0.9375 -6
v -4 0 -6
v -4 0 -5
v -4 0.9375 -6
v -4 0.9375 -5
v -3 0 -6
v -3 0 -5
v -3 0.9375 -6
v -3 0.9375 -5
v -3 0 -8
v -3 0 -7
v -3 0.9375 -8
v -3 0.9375 -7
v -2 0 -8
v -2 0 -7
v -2 0.9375 -8
v -2 0.9375 -7
v -3 0 -7
v -3 0 -6
v -3 0.9375 -7
v -3 0.9375 -6
v -2 0 -7
v -2 0 -6
v -2 0.9375 -7
v -2 0.9375 -6
v -3 0 -6
v -3 0 -5
v -3 0.9375 -6
v -3 0.9375 -5
v -2 0 -6
v -2 0 -5
v -2 0.9375 -6
v -2 0.9375 -5
v -2 0 -8
v -2 0 -7
v -2 0.9375 -8
v -2 0.9375 -7
v -1 0 -8
v -1 0 -7
v -1 0.9375 -8
v -1 0.9375 -7
v -2 0 -7
v -2 0 -6
v -2 0.9375 -7
v -2 0.9375 -6
v -1 0 -7
v -1 0 -6
v -1 0.9375 -7
v -1 0.9375 -6
v -2 0 -6
v -2 0 -5
v -2 0.9375 -6
v -2 0.9375 -5
v -1 0 -6
v -1 0 -5
v -1 0.9375 -6
v -1 0.9375 -5
v -1 0 -8
v -1 0 -7
v -1 0.9375 -8
v -1 0.9375 -7
v 0 0 -8
v 0 0 -7
v 0 0.9375 -8
v 0 0.9375 -7
v -1 0 -7
v -1 0 -6
v -1 0.9375 -7
v -1 0.9375 -6
v 0 0 -7
v 0 0 -6
v 0 0.9375 -7
v 0 0.9375 -6
v -1 0 -6
v -1 0 -5
v -1 0.9375 -6
v -1 0.9375 -5
v 0 0 -6
v 0 0 -5
v 0 0.9375 -6
v 0 0.9375 -5
v 0 0 -8
v 0 0 -7
v 0 0.9375 -8
v 0 0.9375 -7
v 1 0 -8
v 1 0 -7
v 1 0.9375 -8
v 1 0.9375 -7
v 0 0 -7
v 0 0 -6
v 0 0.9375 -7
v 0 0.9375 -6
v 1 0 -7
v 1 0 -6
v 1 0.9375 -7
v 1 0.9375 -6
v 0 0 -6
v 0 0 -5
v 0 0.9375 -6
v 0 0.9375 -5
v 1 0 -6
v 1 0 -5
v 1 0.9375 -6
v 1 0.9375 -5
v 1 0 -8
v 1 0 -7
v 1 0.9375 -8
v 1 0.9375 -7
v 2 0 -8
v 2 0 -7
v 2 0.9375 -8
v 2 0.9375 -7
v 1 0 -7
v 1 0 -6
v 1 0.9375 -7
v 1 0.9375 -6
v 2 0 -7
v 2 0 -6
v 2 0.9375 -7
v 2 0.9375 -6
v 1 0 -6
v 1 0 -5
v 1 0.9375 -6
v 1 0.9375 -5
v 2 0 -6
v 2 0 -5
v 2 0.9375 -6
v 2 0.9375 -5
v 2 0 -8
v 2 0 -7
v 2 0.9375 -8
v 2 0.9375 -7
v 3 0 -8
v 3 0 -7
v 3 0.9375 -8
v 3 0.9375 -7
v 2 0 -7
v 2 0 -6
v 2 0.9375 -7
v 2 0.9375 -6
v 3 0 -7
v 3 0 -6
v 3 0.9375 -7
v 3 0.9375 -6
v 2 0 -6
v 2 0 -5
v 2 0.9375 -6
v 2 0.9375 -5
v 3 0 -6
v 3 0 -5
v 3 0.9375 -6
v 3 0.9375 -5
v 3 0 -8
v 3 0 -7
v 3 0.9375 -8
v 3 0.9375 -7
v 4 0 -8
v 4 0 -7
v 4 0.9375 -8
v 4 0.9375 -7
v 3 0 -7
v 3 0 -6
v 3 0.9375 -7
v 3 0.9375 -6
v 4 0 -7
v 4 0 -6
v 4 0.9375 -7
v 4 0.9375 -6
v 3 0 -6
v 3 0 -5
v 3 0.9375 -6
v 3 0.9375 -5
v 4 0 -6
v 4 0 -5
v 4 0.9375 -6
v 4 0.9375 -5
v 4 0 -8
v 4 0 -7
v 4 0.9375 -8
v 4 0.9375 -7
v 5 0 -8
v 5 0 -7
v 5 0.9375 -8
v 5 0.9375 -7
v 4 0 -7
v 4 0 -6
v 4 0.9375 -7
v 4 0.9375 -6
v 5 0 -7
v 5 0 -6
v 5 0.9375 -7
v 5 0.9375 -6
v 4 0 -6
v 4 0 -5
v 4 0.9375 -6
v 4 0.9375 -5
v 5 0 -6
v 5 0 -5
v 5 0.9375 -6
v 5 0.9375 -5
v 5 0 -8
v 5 0 -7
v 5 0.9375 -8
v 5 0.9375 -7
v 6 0 -8
v 6 0 -7
v 6 0.9375 -8
v 6 0.9375 -7
v 5 0 -7
v 5 0 -6
v 5 0.9375 -7
v 5 0.9375 -6
v 6 0 -7
v 6 0 -6
v 6 0.9375 -7
v 6 0.9375 -6
v 5 0 -6
v 5 0 -5
v 5 0.9375 -6
v 5 0.9375 -5
v 6 0 -6
v 6 0 -5
v 6 0.9375 -6
v 6 0.9375 -5
v -6 0 -5
v -6 0 -4
v -6 1 -4
v -6 1 -5
v -5 0 -4
v -5 0 -5
v -5 1 -5
v -5 1 -4
v -6 0 -3
v -6 1 -3
v -5 0 -3
v -5 1 -3
v -6 0 -2
v -6 1 -2
v -5 0 -2
v -5 1 -2
v -6 0 -1
v -6 1 -1
v -5 0 -1
v -5 1 -1
v -6 0 0
v -6 1 0
v -5 0 0
v -5 1 0
v -6 0 1
v -6 1 1
v -5 0 1
v -5 1 1
v -6 0 2
v -6 1 2
v -5 0 2
v -5 1 2
v -6 0 3
v -6 1 3
v -5 0 3
v -5 1 3
v -6 0 4
v -6 1 4
v -5 0 4
v -5 1 4
v -6 0 5
v -6 1 5
v -5 0 5
v -5 1 5
v -6 0 6
v -6 1 6
v -5 0 6
v -5 1 6
v -6 0 7
v -6 1 7
v -5 0 7
v -5 1 7
v -6 0 8
v -6 1 8
v -5 0 8
v -5 1 8
v -4 0 -4
v -4 0 -5
v -4 1 -5
v -4 1 -4
v -4 0 -3
v -4 1 -3
v -4 0 -2
v -4 1 -2
v -4 0 -1
v -4 1 -1
v -4 0 0
v -4 1 0
v -4 0 1
v -4 1 1
v -4 0 2
v -4 1 2
v -4 0 3
v -4 1 3
v -4 0 4
v -4 1 4
v -4 0 5
v -4 1 5
v -4 0 6
v -4 1 6
v -4 0 7
v -4 1 7
v -4 0 8
v -4 1 8
v -3 0 -4
v -3 0 -5
v -3 1 -5
v -3 1 -4
v -3 0 -3
v -3 1 -3
v -3 0 -2
v -3 1 -2
v -3 0 -1
v -3 1 -1
v -3 0 0
v -3 1 0
v -3 0 1
v -3 1 1
v -3 0 2
v -3 1 2
v -3 0 3
v -3 1 3
v -3 0 4
v -3 1 4
v -3 0 5
v -3 1 5
v -3 0 6
v -3 1 6
v -3 0 7
v -3 1 7
v -3 0 8
v -3 1 8
v -2 0 -4
v -2 0 -5
v -2 1 -5
v -2 1 -4
v -2 0 -3
v -2 1 -3
v -2 0 -2
v -2 1 -2
v -2 0 -1
v -2 1 -1
v -2 0 0
v -2 1 0
v -2 0 1
v -2 1 1
v -2 0 2
v -2 1 2
v -2 0 3
v -2 1 3
v -2 0 4
v -2 1 4
v -2 0 5
v -2 1 5
v -2 0 6
v -2 1 6
v -2 0 7
v -2 1 7
v -2 0 8
v -2 1 8
v -1 0 -4
v -1 0 -5
v -1 1 -5
v -1 1 -4
v -1 0 -3
v -1 1 -3
v -1 0 -2
v -1 1 -2
v -1 0 -1
v -1 1 -1
v -1 0 0
v -1 1 0
v -1 0 1
v -1 1 1
v -1 0 2
v -1 1 2
v -1 0 3
v -1 1 3
v -1 0 4
v -1 1 4
v -1 0 5
v -1 1 5
v -1 0 6
v -1 1 6
v -1 0 7
v -1 1 7
v -1 0 8
v -1 1 8
v 0 0 -4
v 0 0 -5
v 0 1 -5
v 0 1 -4
v 0 0 -3
v 0 1 -3
v 0 0 -2
v 0 1 -2
v 0 0 -1
v 0 1 -1
v 0 0 0
v 0 1 0
v 0 0 1
v 0 1 1
v 0 0 2
v 0 1 2
v 0 0 3
v 0 1 3
v 0 0 4
v 0 1 4
v 0 0 5
v 0 1 5
v 0 0 6
v 0 1 6
v 0 0 7
v 0 1 7
v 0 0 8
v 0 1 8
v 1 0 -4
v 1 0 -5
v 1 1 -5
v 1 1 -4
v 1 0 -3
v 1 1 -3
v 1 0 -2
v 1 1 -2
v 1 0 -1
v 1 1 -1
v 1 0 0
v 1 1 0
v 1 0 1
v 1 1 1
v 1 0 2
v 1 1 2
v 1 0 3
v 1 1 3
v 1 0 4
v 1 1 4
v 1 0 5
v 1 1 5
v 1 0 6
v 1 1 6
v 1 0 7
v 1 1 7
v 1 0 8
v 1 1 8
v 2 0 -4
v 2 0 -5
v 2 1 -5
v 2 1 -4
v 2 0 -3
v 2 1 -3
v 2 0 -2
v 2 1 -2
v 2 0 -1
v 2 1 -1
v 2 0 0
v 2 1 0
v 2 0 1
v 2 1 1
v 2 0 2
v 2 1 2
v 2 0 3
v 2 1 3
v 2 0 4
v 2 1 4
v 2 0 5
v 2 1 5
v 2 0 6
v 2 1 6
v 2 0 7
v 2 1 7
v 2 0 8
v 2 1 8
v 3 0 -4
v 3 0 -5
v 3 1 -5
v 3 1 -4
v 3 0 -3
v 3 1 -3
v 3 0 -2
v 3 1 -2
v 3 0 -1
v 3 1 -1
v 3 0 0
v 3 1 0
v 3 0 1
v 3 1 1
v 3 0 2
v 3 1 2
v 3 0 3
v 3 1 3
v 3 0 4
v 3 1 4
v 3 0 5
v 3 1 5
v 3 0 6
v 3 1 6
v 3 0 7
v 3 1 7
v 3 0 8
v 3 1 8
v 4 0 -4
v 4 0 -5
v 4 1 -5
v 4 1 -4
v 4 0 -3
v 4 1 -3
v 4 0 -2
v 4 1 -2
v 4 0 -1
v 4 1 -1
v 4 0 0
v 4 1 0
v 4 0 1
v 4 1 1
v 4 0 2
v 4 1 2
v 4 0 3
v 4 1 3
v 4 0 4
v 4 1 4
v 4 0 5
v 4 1 5
v 4 0 6
v 4 1 6
v 4 0 7
v 4 1 7
v 4 0 8
v 4 1 8
v 5 0 -4
v 5 0 -5
v 5 1 -5
v 5 1 -4
v 5 0 -3
v 5 1 -3
v 5 0 -2
v 5 1 -2
v 5 0 -1
v 5 1 -1
v 5 0 0
v 5 1 0
v 5 0 1
v 5 1 1
v 5 0 2
v 5 1 2
v 5 0 3
v 5 1 3
v 5 0 4
v 5 1 4
v 5 0 5
v 5 1 5
v 5 0 6
v 5 1 6
v 5 0 7
v 5 1 7
v 5 0 8
v 5 1 8
v 6 0 -4
v 6 0 -5
v 6 1 -5
v 6 1 -4
v 6 0 -3
v 6 1 -3
v 6 0 -2
v 6 1 -2
v 6 0 -1
v 6 1 -1
v 6 0 0
v 6 1 0
v 6 0 1
v 6 1 1
v 6 0 2
v 6 1 2
v 6 0 3
v 6 1 3
v 6 0 4
v 6 1 4
v 6 0 5
v 6 1 5
v 6 0 6
v 6 1 6
v 6 0 7
v 6 1 7
v 6 0 8
v 6 1 8

g Polished_Granite
usemtl polished_granite
f 297/2/1 298/6/1 291/5/1 290/1/1
f 297/5/2 290/1/2 293/2/2 299/6/2
f 298/1/5 300/2/5 296/6/5 291/5/5
f 301/2/1 302/6/1 298/5/1 297/1/1
f 301/5/2 297/1/2 299/2/2 303/6/2
f 302/1/5 304/2/5 300/6/5 298/5/5
f 305/2/1 306/6/1 302/5/1 301/1/1
f 305/5/2 301/1/2 303/2/2 307/6/2
f 306/1/5 308/2/5 304/6/5 302/5/5
f 309/2/1 310/6/1 306/5/1 305/1/1
f 309/5/2 305/1/2 307/2/2 311/6/2
f 310/1/5 312/2/5 308/6/5 306/5/5
f 313/2/1 314/6/1 310/5/1 309/1/1
f 313/5/2 309/1/2 311/2/2 315/6/2
f 314/1/5 316/2/5 312/6/5 310/5/5
f 317/2/1 318/6/1 314/5/1 313/1/1
f 317/5/2 313/1/2 315/2/2 319/6/2
f 318/1/5 320/2/5 316/6/5 314/5/5
f 321/2/1 322/6/1 318/5/1 317/1/1
f 321/5/2 317/1/2 319/2/2 323/6/2
f 322/1/5 324/2/5 320/6/5 318/5/5
f 325/2/1 326/6/1 322/5/1 321/1/1
f 325/5/2 321/1/2 323/2/2 327/6/2
f 326/1/5 328/2/5 324/6/5 322/5/5
f 329/2/1 330/6/1 326/5/1 325/1/1
f 329/5/2 325/1/2 327/2/2 331/6/2
f 330/1/5 332/2/5 328/6/5 326/5/5
f 333/2/1 334/6/1 330/5/1 329/1/1
f 333/5/2 329/1/2 331/2/2 335/6/2
f 334/1/5 336/2/5 332/6/5 330/5/5
f 337/2/1 338/6/1 334/5/1 333/1/1
f 337/5/2 333/1/2 335/2/2 339/6/2
f 338/1/5 340/2/5 336/6/5 334/5/5
f 341/2/1 342/6/1 338/5/1 337/1/1
f 341/5/2 337/1/2 339/2/2 343/6/2
f 342/1/5 344/2/5 340/6/5 338/5/5
f 341/1/6 343/2/6 344/6/6 342/5/6
f 335/5/2 331/1/2 365/2/2 367/6/2
f 336/1/5 368/2/5 366/6/5 332/5/5
f 339/5/2 335/1/2 367/2/2 369/6/2
f 340/1/5 370/2/5 368/6/5 336/5/5
f 343/5/2 339/1/2 369/2/2 371/6/2
f 344/1/5 372/2/5 370/6/5 340/5/5
f 343/1/6 371/2/6 372/6/6 344/5/6
f 367/5/2 365/1/2 393/2/2 395/6/2
f 368/1/5 396/2/5 394/6/5 366/5/5
f 369/5/2 367/1/2 395/2/2 397/6/2
f 370/1/5 398/2/5 396/6/5 368/5/5
f 371/5/2 369/1/2 397/2/2 399/6/2
f 372/1/5 400/2/5 398/6/5 370/5/5
f 371/1/6 399/2/6 400/6/6 372/5/6
f 395/5/2 393/1/2 421/2/2 423/6/2
f 396/1/5 424/2/5 422/6/5 394/5/5
f 397/5/2 395/1/2 423/2/2 425/6/2
f 398/1/5 426/2/5 424/6/5 396/5/5
f 399/5/2 397/1/2 425/2/2 427/6/2
f 400/1/5 428/2/5 426/6/5 398/5/5
f 399/1/6 427/2/6 428/6/6 400/5/6
f 423/5/2 421/1/2 449/2/2 451/6/2
f 424/1/5 452/2/5 450/6/5 422/5/5
f 425/5/2 423/1/2 451/2/2 453/6/2
f 426/1/5 454/2/5 452/6/5 424/5/5
f 427/5/2 425/1/2 453/2/2 455/6/2
f 428/1/5 456/2/5 454/6/5 426/5/5
f 427/1/6 455/2/6 456/6/6 428/5/6
f 451/5/2 449/1/2 477/2/2 479/6/2
f 452/1/5 480/2/5 478/6/5 450/5/5
f 453/5/2 451/1/2 479/2/2 481/6/2
f 454/1/5 482/2/5 480/6/5 452/5/5
f 455/5/2 453/1/2 481/2/2 483/6/2
f 456/1/5 484/2/5 482/6/5 454/5/5
f 455/1/6 483/2/6 484/6/6 456/5/6
f 479/5/2 477/1/2 505/2/2 507/6/2
f 480/1/5 508/2/5 506/6/5 478/5/5
f 481/5/2 479/1/2 507/2/2 509/6/2
f 482/1/5 510/2/5 508/6/5 480/5/5
f 483/5/2 481/1/2 509/2/2 511/6/2
f 484/1/5 512/2/5 510/6/5 482/5/5
f 483/1/6 511/2/6 512/6/6 484/5/6
f 507/5/2 505/1/2 533/2/2 535/6/2
f 508/1/5 536/2/5 534/6/5 506/5/5
f 509/5/2 507/1/2 535/2/2 537/6/2
f 510/1/5 538/2/5 536/6/5 508/5/5
f 511/5/2 509/1/2 537/2/2 539/6/2
f 512/1/5 540/2/5 538/6/5 510/5/5
f 511/1/6 539/2/6 540/6/6 512/5/6
f 535/5/2 533/1/2 561/2/2 563/6/2
f 536/1/5 564/2/5 562/6/5 534/5/5
f 537/5/2 535/1/2 563/2/2 565/6/2
f 538/1/5 566/2/5 564/6/5 536/5/5
f 539/5/2 537/1/2 565/2/2 567/6/2
f 540/1/5 568/2/5 566/6/5 538/5/5
f 539/1/6 567/2/6 568/6/6 540/5/6

g Grass_Block
usemtl grass_block_top
f 291/1/5 296/2/5 295/6/5 292/5/5
f 296/5/5 348/1/5 347/2/5 295/6/5
f 348/5/5 376/1/5 375/2/5 347/6/5
f 376/2/5 404/6/5 403/5/5 375/1/5
f 404/1/5 432/2/5 431/6/5 403/5/5
f 432/2/5 460/6/5 459/5/5 431/1/5
f 460/2/5 488/6/5 487/5/5 459/1/5
f 488/2/5 516/6/5 515/5/5 487/1/5
f 516/5/5 544/1/5 543/2/5 515/6/5
f 544/5/5 572/1/5 571/2/5 543/6/5
f 546/2/5 574/6/5 572/5/5 544/1/5
f 548/1/5 576/2/5 574/6/5 546/5/5
f 550/5/5 578/1/5 576/2/5 548/6/5
f 552/6/5 580/5/5 578/1/5 550/2/5
f 554/5/5 582/1/5 580/2/5 552/6/5
f 556/1/5 584/2/5 582/6/5 554/5/5
f 558/6/5 586/5/5 584/1/5 556/2/5
f 560/5/5 588/1/5 586/2/5 558/6/5
f 562/1/5 590/2/5 588/6/5 560/5/5
f 564/1/5 592/2/5 590/6/5 562/5/5
f 566/6/5 594/5/5 592/1/5 564/2/5
f 568/6/5 596/5/5 594/1/5 566/2/5
f 572/6/5 600/5/5 599/1/5 571/2/5
f 574/5/5 602/1/5 600/2/5 572/6/5
f 576/5/5 604/1/5 602/2/5 574/6/5
f 578/5/5 606/1/5 604/2/5 576/6/5
f 580/5/5 608/1/5 606/2/5 578/6/5
f 582/5/5 610/1/5 608/2/5 580/6/5
f 584/2/5 612/6/5 610/5/5 582/1/5
f 586/6/5 614/5/5 612/1/5 584/2/5
f 588/1/5 616/2/5 614/6/5 586/5/5
f 590/1/5 618/2/5 616/6/5 588/5/5
f 592/6/5 620/5/5 618/1/5 590/2/5
f 594/2/5 622/6/5 620/5/5 592/1/5
f 596/6/5 624/5/5 622/1/5 594/2/5
f 600/5/5 628/1/5 627/2/5 599/6/5
f 602/5/5 630/1/5 628/2/5 600/6/5
f 604/1/5 632/2/5 630/6/5 602/5/5
f 606/6/5 634/5/5 632/1/5 604/2/5
f 608/6/5 636/5/5 634/1/5 606/2/5
f 610/5/5 638/1/5 636/2/5 608/6/5
f 612/5/5 640/1/5 638/2/5 610/6/5
f 614/2/5 642/6/5 640/5/5 612/1/5
f 616/2/5 644/6/5 642/5/5 614/1/5
f 618/2/5 646/6/5 644/5/5 616/1/5
f 620/1/5 648/2/5 646/6/5 618/5/5
f 622/6/5 650/5/5 648/1/5 620/2/5
f 624/5/5 652/1/5 650/2/5 622/6/5

usemtl dirt
f 290/5/2 289/1/2 294/2/2 293/6/2
f 293/6/2 294/5/2 346/1/2 345/2/2
f 345/6/2 346/5/2 374/1/2 373/2/2
f 373/1/2 374/2/2 402/6/2 401/5/2
f 401/5/2 402/1/2 430/2/2 429/6/2
f 429/1/2 430/2/2 458/6/2 457/5/2
f 457/1/2 458/2/2 486/6/2 485/5/2
f 485/1/2 486/2/2 514/6/2 513/5/2
f 513/6/2 514/5/2 542/1/2 541/2/2
f 541/6/2 542/5/2 570/1/2 569/2/2
f 545/1/2 541/2/2 569/6/2 573/5/2
f 547/5/2 545/1/2 573/2/2 575/6/2
f 549/6/2 547/5/2 575/1/2 577/2/2
f 551/2/2 549/6/2 577/5/2 579/1/2
f 553/6/2 551/5/2 579/1/2 581/2/2
f 555/5/2 553/1/2 581/2/2 583/6/2
f 557/2/2 555/6/2 583/5/2 585/1/2
f 559/6/2 557/5/2 585/1/2 587/2/2
f 561/5/2 559/1/2 587/2/2 589/6/2
f 563/5/2 561/1/2 589/2/2 591/6/2
f 565/2/2 563/6/2 591/5/2 593/1/2
f 567/2/2 565/6/2 593/5/2 595/1/2
f 569/2/2 570/6/2 598/5/2 597/1/2
f 573/6/2 569/5/2 597/1/2 601/2/2
f 575/6/2 573/5/2 601/1/2 603/2/2
f 577/6/2 575/5/2 603/1/2 605/2/2
f 579/6/2 577/5/2 605/1/2 607/2/2
f 581/6/2 579/5/2 607/1/2 609/2/2
f 583/1/2 581/2/2 609/6/2 611/5/2
f 585/2/2 583/6/2 611/5/2 613/1/2
f 587/5/2 585/1/2 613/2/2 615/6/2
f 589/5/2 587/1/2 615/2/2 617/6/2
f 591/2/2 589/6/2 617/5/2 619/1/2
f 593/1/2 591/2/2 619/6/2 621/5/2
f 595/2/2 593/6/2 621/5/2 623/1/2
f 597/6/2 598/5/2 626/1/2 625/2/2
f 601/6/2 597/5/2 625/1/2 629/2/2
f 603/5/2 601/1/2 629/2/2 631/6/2
f 605/2/2 603/6/2 631/5/2 633/1/2
f 607/2/2 605/6/2 633/5/2 635/1/2
f 609/6/2 607/5/2 635/1/2 637/2/2
f 611/6/2 609/5/2 637/1/2 639/2/2
f 613/1/2 611/2/2 639/6/2 641/5/2
f 615/1/2 613/2/2 641/6/2 643/5/2
f 617/1/2 615/2/2 643/6/2 645/5/2
f 619/5/2 617/1/2 645/2/2 647/6/2
f 621/2/2 619/6/2 647/5/2 649/1/2
f 623/6/2 621/5/2 649/1/2 651/2/2

usemtl grass_block_side
f 290/2/1 291/6/1 292/5/1 289/1/1
f 289/2/3 292/6/3 295/5/3 294/1/3
f 294/2/3 295/6/3 347/5/3 346/1/3
f 346/2/3 347/6/3 375/5/3 374/1/3
f 374/2/3 375/6/3 403/5/3 402/1/3
f 402/2/3 403/6/3 431/5/3 430/1/3
f 430/2/3 431/6/3 459/5/3 458/1/3
f 458/2/3 459/6/3 487/5/3 486/1/3
f 486/2/3 487/6/3 515/5/3 514/1/3
f 514/2/3 515/6/3 543/5/3 542/1/3
f 542/2/3 543/6/3 571/5/3 570/1/3
f 567/1/6 595/2/6 596/6/6 568/5/6
f 570/2/3 571/6/3 599/5/3 598/1/3
f 595/1/6 623/2/6 624/6/6 596/5/6
f 598/2/3 599/6/3 627/5/3 626/1/3
f 625/1/4 626/2/4 627/6/4 628/5/4
f 629/1/4 625/2/4 628/6/4 630/5/4
f 631/1/4 629/2/4 630/6/4 632/5/4
f 633/1/4 631/2/4 632/6/4 634/5/4
f 635/1/4 633/2/4 634/6/4 636/5/4
f 637/1/4 635/2/4 636/6/4 638/5/4
f 639/1/4 637/2/4 638/6/4 640/5/4
f 641/1/4 639/2/4 640/6/4 642/5/4
f 643/1/4 641/2/4 642/6/4 644/5/4
f 645/1/4 643/2/4 644/6/4 646/5/4
f 647/1/4 645/2/4 646/6/4 648/5/4
f 649/1/4 647/2/4 648/6/4 650/5/4
f 651/1/4 649/2/4 650/6/4 652/5/4
f 623/1/6 651/2/6 652/6/6 624/5/6

g Lime_Wool
usemtl lime_wool
f 299/5/2 293/1/2 345/2/2 349/6/2
f 300/1/5 350/2/5 348/6/5 296/5/5
f 307/5/2 303/1/2 351/2/2 353/6/2
f 308/1/5 354/2/5 352/6/5 304/5/5
f 315/5/2 311/1/2 355/2/2 357/6/2
f 316/1/5 358/2/5 356/6/5 312/5/5
f 323/5/2 319/1/2 359/2/2 361/6/2
f 324/1/5 362/2/5 360/6/5 320/5/5
f 331/5/2 327/1/2 363/2/2 365/6/2
f 332/1/5 366/2/5 364/6/5 328/5/5
f 351/5/2 349/1/2 377/2/2 379/6/2
f 352/1/5 380/2/5 378/6/5 350/5/5
f 355/5/2 353/1/2 381/2/2 383/6/2
f 356/1/5 384/2/5 382/6/5 354/5/5
f 359/5/2 357/1/2 385/2/2 387/6/2
f 360/1/5 388/2/5 386/6/5 358/5/5
f 363/5/2 361/1/2 389/2/2 391/6/2
f 364/1/5 392/2/5 390/6/5 362/5/5
f 377/5/2 373/1/2 401/2/2 405/6/2
f 378/1/5 406/2/5 404/6/5 376/5/5
f 381/5/2 379/1/2 407/2/2 409/6/2
f 382/1/5 410/2/5 408/6/5 380/5/5
f 385/5/2 383/1/2 411/2/2 413/6/2
f 386/1/5 414/2/5 412/6/5 384/5/5
f 389/5/2 387/1/2 415/2/2 417/6/2
f 390/1/5 418/2/5 416/6/5 388/5/5
f 393/5/2 391/1/2 419/2/2 421/6/2
f 394/1/5 422/2/5 420/6/5 392/5/5
f 407/5/2 405/1/2 433/2/2 435/6/2
f 408/1/5 436/2/5 434/6/5 406/5/5
f 411/5/2 409/1/2 437/2/2 439/6/2
f 412/1/5 440/2/5 438/6/5 410/5/5
f 415/5/2 413/1/2 441/2/2 443/6/2
f 416/1/5 444/2/5 442/6/5 414/5/5
f 419/5/2 417/1/2 445/2/2 447/6/2
f 420/1/5 448/2/5 446/6/5 418/5/5
f 433/5/2 429/1/2 457/2/2 461/6/2
f 434/1/5 462/2/5 460/6/5 432/5/5
f 437/5/2 435/1/2 463/2/2 465/6/2
f 438/1/5 466/2/5 464/6/5 436/5/5
f 441/5/2 439/1/2 467/2/2 469/6/2
f 442/1/5 470/2/5 468/6/5 440/5/5
f 445/5/2 443/1/2 471/2/2 473/6/2
f 446/1/5 474/2/5 472/6/5 444/5/5
f 449/5/2 447/1/2 475/2/2 477/6/2
f 450/1/5 478/2/5 476/6/5 448/5/5
f 463/5/2 461/1/2 489/2/2 491/6/2
f 464/1/5 492/2/5 490/6/5 462/5/5
f 467/5/2 465/1/2 493/2/2 495/6/2
f 468/1/5 496/2/5 494/6/5 466/5/5
f 471/5/2 469/1/2 497/2/2 499/6/2
f 472/1/5 500/2/5 498/6/5 470/5/5
f 475/5/2 473/1/2 501/2/2 503/6/2
f 476/1/5 504/2/5 502/6/5 474/5/5
f 489/5/2 485/1/2 513/2/2 517/6/2
f 490/1/5 518/2/5 516/6/5 488/5/5
f 493/5/2 491/1/2 519/2/2 521/6/2
f 494/1/5 522/2/5 520/6/5 492/5/5
f 497/5/2 495/1/2 523/2/2 525/6/2
f 498/1/5 526/2/5 524/6/5 496/5/5
f 501/5/2 499/1/2 527/2/2 529/6/2
f 502/1/5 530/2/5 528/6/5 500/5/5
f 505/5/2 503/1/2 531/2/2 533/6/2
f 506/1/5 534/2/5 532/6/5 504/5/5
f 519/5/2 517/1/2 545/2/2 547/6/2
f 520/1/5 548/2/5 546/6/5 518/5/5
f 523/5/2 521/1/2 549/2/2 551/6/2
f 524/1/5 552/2/5 550/6/5 522/5/5
f 527/5/2 525/1/2 553/2/2 555/6/2
f 528/1/5 556/2/5 554/6/5 526/5/5
f 531/5/2 529/1/2 557/2/2 559/6/2
f 532/1/5 560/2/5 558/6/5 530/5/5

g Green_Wool
usemtl green_wool
f 303/5/2 299/1/2 349/2/2 351/6/2
f 304/1/5 352/2/5 350/6/5 300/5/5
f 311/5/2 307/1/2 353/2/2 355/6/2
f 312/1/5 356/2/5 354/6/5 308/5/5
f 319/5/2 315/1/2 357/2/2 359/6/2
f 320/1/5 360/2/5 358/6/5 316/5/5
f 327/5/2 323/1/2 361/2/2 363/6/2
f 328/1/5 364/2/5 362/6/5 324/5/5
f 349/5/2 345/1/2 373/2/2 377/6/2
f 350/1/5 378/2/5 376/6/5 348/5/5
f 353/5/2 351/1/2 379/2/2 381/6/2
f 354/1/5 382/2/5 380/6/5 352/5/5
f 357/5/2 355/1/2 383/2/2 385/6/2
f 358/1/5 386/2/5 384/6/5 356/5/5
f 361/5/2 359/1/2 387/2/2 389/6/2
f 362/1/5 390/2/5 388/6/5 360/5/5
f 365/5/2 363/1/2 391/2/2 393/6/2
f 366/1/5 394/2/5 392/6/5 364/5/5
f 379/5/2 377/1/2 405/2/2 407/6/2
f 380/1/5 408/2/5 406/6/5 378/5/5
f 383/5/2 381/1/2 409/2/2 411/6/2
f 384/1/5 412/2/5 410/6/5 382/5/5
f 387/5/2 385/1/2 413/2/2 415/6/2
f 388/1/5 416/2/5 414/6/5 386/5/5
f 391/5/2 389/1/2 417/2/2 419/6/2
f 392/1/5 420/2/5 418/6/5 390/5/5
f 405/5/2 401/1/2 429/2/2 433/6/2
f 406/1/5 434/2/5 432/6/5 404/5/5
f 409/5/2 407/1/2 435/2/2 437/6/2
f 410/1/5 438/2/5 436/6/5 408/5/5
f 413/5/2 411/1/2 439/2/2 441/6/2
f 414/1/5 442/2/5 440/6/5 412/5/5
f 417/5/2 415/1/2 443/2/2 445/6/2
f 418/1/5 446/2/5 444/6/5 416/5/5
f 421/5/2 419/1/2 447/2/2 449/6/2
f 422/1/5 450/2/5 448/6/5 420/5/5
f 435/5/2 433/1/2 461/2/2 463/6/2
f 436/1/5 464/2/5 462/6/5 434/5/5
f 439/5/2 437/1/2 465/2/2 467/6/2
f 440/1/5 468/2/5 466/6/5 438/5/5
f 443/5/2 441/1/2 469/2/2 471/6/2
f 444/1/5 472/2/5 470/6/5 442/5/5
f 447/5/2 445/1/2 473/2/2 475/6/2
f 448/1/5 476/2/5 474/6/5 446/5/5
f 461/5/2 457/1/2 485/2/2 489/6/2
f 462/1/5 490/2/5 488/6/5 460/5/5
f 465/5/2 463/1/2 491/2/2 493/6/2
f 466/1/5 494/2/5 492/6/5 464/5/5
f 469/5/2 467/1/2 495/2/2 497/6/2
f 470/1/5 498/2/5 496/6/5 468/5/5
f 473/5/2 471/1/2 499/2/2 501/6/2
f 474/1/5 502/2/5 500/6/5 472/5/5
f 477/5/2 475/1/2 503/2/2 505/6/2
f 478/1/5 506/2/5 504/6/5 476/5/5
f 491/5/2 489/1/2 517/2/2 519/6/2
f 492/1/5 520/2/5 518/6/5 490/5/5
f 495/5/2 493/1/2 521/2/2 523/6/2
f 496/1/5 524/2/5 522/6/5 494/5/5
f 499/5/2 497/1/2 525/2/2 527/6/2
f 500/1/5 528/2/5 526/6/5 498/5/5
f 503/5/2 501/1/2 529/2/2 531/6/2
f 504/1/5 532/2/5 530/6/5 502/5/5
f 517/5/2 513/1/2 541/2/2 545/6/2
f 518/1/5 546/2/5 544/6/5 516/5/5
f 521/5/2 519/1/2 547/2/2 549/6/2
f 522/1/5 550/2/5 548/6/5 520/5/5
f 525/5/2 523/1/2 551/2/2 553/6/2
f 526/1/5 554/2/5 552/6/5 524/5/5
f 529/5/2 527/1/2 555/2/2 557/6/2
f 530/1/5 558/2/5 556/6/5 528/5/5
f 533/5/2 531/1/2 559/2/2 561/6/2
f 534/1/5 562/2/5 560/6/5 532/5/5

g Dirt_Path
usemtl dirt
f 2/5/2 1/1/2 5/2/2 6/6/2
f 10/5/2 9/1/2 13/2/2 14/6/2
f 18/5/2 17/1/2 21/2/2 22/6/2
f 26/5/2 25/1/2 29/2/2 30/6/2
f 34/5/2 33/1/2 37/2/2 38/6/2
f 42/5/2 41/1/2 45/2/2 46/6/2
f 50/5/2 49/1/2 53/2/2 54/6/2
f 58/5/2 57/1/2 61/2/2 62/6/2
f 66/5/2 65/1/2 69/2/2 70/6/2
f 74/5/2 73/1/2 77/2/2 78/6/2
f 82/5/2 81/1/2 85/2/2 86/6/2
f 90/5/2 89/1/2 93/2/2 94/6/2
f 98/5/2 97/1/2 101/2/2 102/6/2
f 106/5/2 105/1/2 109/2/2 110/6/2
f 114/5/2 113/1/2 117/2/2 118/6/2
f 122/5/2 121/1/2 125/2/2 126/6/2
f 130/5/2 129/1/2 133/2/2 134/6/2
f 138/5/2 137/1/2 141/2/2 142/6/2
f 146/5/2 145/1/2 149/2/2 150/6/2
f 154/5/2 153/1/2 157/2/2 158/6/2
f 162/5/2 161/1/2 165/2/2 166/6/2
f 170/5/2 169/1/2 173/2/2 174/6/2
f 178/5/2 177/1/2 181/2/2 182/6/2
f 186/5/2 185/1/2 189/2/2 190/6/2
f 194/5/2 193/1/2 197/2/2 198/6/2
f 202/5/2 201/1/2 205/2/2 206/6/2
f 210/5/2 209/1/2 213/2/2 214/6/2
f 218/5/2 217/1/2 221/2/2 222/6/2
f 226/5/2 225/1/2 229/2/2 230/6/2
f 234/5/2 233/1/2 237/2/2 238/6/2
f 242/5/2 241/1/2 245/2/2 246/6/2
f 250/5/2 249/1/2 253/2/2 254/6/2
f 258/5/2 257/1/2 261/2/2 262/6/2
f 266/5/2 265/1/2 269/2/2 270/6/2
f 274/5/2 273/1/2 277/2/2 278/6/2
f 282/5/2 281/1/2 285/2/2 286/6/2

usemtl dirt_path_top
f 7/6/5 3/5/5 4/1/5 8/2/5
f 15/6/5 11/5/5 12/1/5 16/2/5
f 23/6/5 19/5/5 20/1/5 24/2/5
f 31/6/5 27/5/5 28/1/5 32/2/5
f 39/6/5 35/5/5 36/1/5 40/2/5
f 47/6/5 43/5/5 44/1/5 48/2/5
f 55/6/5 51/5/5 52/1/5 56/2/5
f 63/6/5 59/5/5 60/1/5 64/2/5
f 71/6/5 67/5/5 68/1/5 72/2/5
f 79/6/5 75/5/5 76/1/5 80/2/5
f 87/6/5 83/5/5 84/1/5 88/2/5
f 95/6/5 91/5/5 92/1/5 96/2/5
f 103/6/5 99/5/5 100/1/5 104/2/5
f 111/6/5 107/5/5 108/1/5 112/2/5
f 119/6/5 115/5/5 116/1/5 120/2/5
f 127/6/5 123/5/5 124/1/5 128/2/5
f 135/6/5 131/5/5 132/1/5 136/2/5
f 143/6/5 139/5/5 140/1/5 144/2/5
f 151/6/5 147/5/5 148/1/5 152/2/5
f 159/6/5 155/5/5 156/1/5 160/2/5
f 167/6/5 163/5/5 164/1/5 168/2/5
f 175/6/5 171/5/5 172/1/5 176/2/5
f 183/6/5 179/5/5 180/1/5 184/2/5
f 191/6/5 187/5/5 188/1/5 192/2/5
f 199/6/5 195/5/5 196/1/5 200/2/5
f 207/6/5 203/5/5 204/1/5 208/2/5
f 215/6/5 211/5/5 212/1/5 216/2/5
f 223/6/5 219/5/5 220/1/5 224/2/5
f 231/6/5 227/5/5 228/1/5 232/2/5
f 239/6/5 235/5/5 236/1/5 240/2/5
f 247/6/5 243/5/5 244/1/5 248/2/5
f 255/6/5 251/5/5 252/1/5 256/2/5
f 263/6/5 259/5/5 260/1/5 264/2/5
f 271/6/5 267/5/5 268/1/5 272/2/5
f 279/6/5 275/5/5 276/1/5 280/2/5
f 287/6/5 283/5/5 284/1/5 288/2/5

usemtl dirt_path_side
f 3/3/1 1/1/1 2/2/1 4/4/1
f 7/3/3 5/1/3 1/2/3 3/4/3
f 7/4/4 8/3/4 6/1/4 5/2/4
f 8/4/6 4/3/6 2/1/6 6/2/6
f 11/3/1 9/1/1 10/2/1 12/4/1
f 15/3/3 13/1/3 9/2/3 11/4/3
f 15/4/4 16/3/4 14/1/4 13/2/4
f 16/4/6 12/3/6 10/1/6 14/2/6
f 19/3/1 17/1/1 18/2/1 20/4/1
f 23/3/3 21/1/3 17/2/3 19/4/3
f 23/4/4 24/3/4 22/1/4 21/2/4
f 27/3/1 25/1/1 26/2/1 28/4/1
f 31/3/3 29/1/3 25/2/3 27/4/3
f 31/4/4 32/3/4 30/1/4 29/2/4
f 32/4/6 28/3/6 26/1/6 30/2/6
f 35/3/1 33/1/1 34/2/1 36/4/1
f 39/3/3 37/1/3 33/2/3 35/4/3
f 39/4/4 40/3/4 38/1/4 37/2/4
f 40/4/6 36/3/6 34/1/6 38/2/6
f 43/3/1 41/1/1 42/2/1 44/4/1
f 47/3/3 45/1/3 41/2/3 43/4/3
f 47/4/4 48/3/4 46/1/4 45/2/4
f 51/3/1 49/1/1 50/2/1 52/4/1
f 55/3/3 53/1/3 49/2/3 51/4/3
f 55/4/4 56/3/4 54/1/4 53/2/4
f 56/4/6 52/3/6 50/1/6 54/2/6
f 59/3/1 57/1/1 58/2/1 60/4/1
f 63/3/3 61/1/3 57/2/3 59/4/3
f 63/4/4 64/3/4 62/1/4 61/2/4
f 64/4/6 60/3/6 58/1/6 62/2/6
f 67/3/1 65/1/1 66/2/1 68/4/1
f 71/3/3 69/1/3 65/2/3 67/4/3
f 71/4/4 72/3/4 70/1/4 69/2/4
f 75/3/1 73/1/1 74/2/1 76/4/1
f 79/3/3 77/1/3 73/2/3 75/4/3
f 79/4/4 80/3/4 78/1/4 77/2/4
f 80/4/6 76/3/6 74/1/6 78/2/6
f 83/3/1 81/1/1 82/2/1 84/4/1
f 87/3/3 85/1/3 81/2/3 83/4/3
f 87/4/4 88/3/4 86/1/4 85/2/4
f 88/4/6 84/3/6 82/1/6 86/2/6
f 91/3/1 89/1/1 90/2/1 92/4/1
f 95/3/3 93/1/3 89/2/3 91/4/3
f 95/4/4 96/3/4 94/1/4 93/2/4
f 99/3/1 97/1/1 98/2/1 100/4/1
f 103/3/3 101/1/3 97/2/3 99/4/3
f 103/4/4 104/3/4 102/1/4 101/2/4
f 104/4/6 100/3/6 98/1/6 102/2/6
f 107/3/1 105/1/1 106/2/1 108/4/1
f 111/3/3 109/1/3 105/2/3 107/4/3
f 111/4/4 112/3/4 110/1/4 109/2/4
f 112/4/6 108/3/6 106/1/6 110/2/6
f 115/3/1 113/1/1 114/2/1 116/4/1
f 119/3/3 117/1/3 113/2/3 115/4/3
f 119/4/4 120/3/4 118/1/4 117/2/4
f 123/3/1 121/1/1 122/2/1 124/4/1
f 127/3/3 125/1/3 121/2/3 123/4/3
f 127/4/4 128/3/4 126/1/4 125/2/4
f 128/4/6 124/3/6 122/1/6 126/2/6
f 131/3/1 129/1/1 130/2/1 132/4/1
f 135/3/3 133/1/3 129/2/3 131/4/3
f 135/4/4 136/3/4 134/1/4 133/2/4
f 136/4/6 132/3/6 130/1/6 134/2/6
f 139/3/1 137/1/1 138/2/1 140/4/1
f 143/3/3 141/1/3 137/2/3 139/4/3
f 143/4/4 144/3/4 142/1/4 141/2/4
f 147/3/1 145/1/1 146/2/1 148/4/1
f 151/3/3 149/1/3 145/2/3 147/4/3
f 151/4/4 152/3/4 150/1/4 149/2/4
f 152/4/6 148/3/6 146/1/6 150/2/6
f 155/3/1 153/1/1 154/2/1 156/4/1
f 159/3/3 157/1/3 153/2/3 155/4/3
f 159/4/4 160/3/4 158/1/4 157/2/4
f 160/4/6 156/3/6 154/1/6 158/2/6
f 163/3/1 161/1/1 162/2/1 164/4/1
f 167/3/3 165/1/3 161/2/3 163/4/3
f 167/4/4 168/3/4 166/1/4 165/2/4
f 171/3/1 169/1/1 170/2/1 172/4/1
f 175/3/3 173/1/3 169/2/3 171/4/3
f 175/4/4 176/3/4 174/1/4 173/2/4
f 176/4/6 172/3/6 170/1/6 174/2/6
f 179/3/1 177/1/1 178/2/1 180/4/1
f 183/3/3 181/1/3 177/2/3 179/4/3
f 183/4/4 184/3/4 182/1/4 181/2/4
f 184/4/6 180/3/6 178/1/6 182/2/6
f 187/3/1 185/1/1 186/2/1 188/4/1
f 191/3/3 189/1/3 185/2/3 187/4/3
f 191/4/4 192/3/4 190/1/4 189/2/4
f 195/3/1 193/1/1 194/2/1 196/4/1
f 199/3/3 197/1/3 193/2/3 195/4/3
f 199/4/4 200/3/4 198/1/4 197/2/4
f 200/4/6 196/3/6 194/1/6 198/2/6
f 203/3/1 201/1/1 202/2/1 204/4/1
f 207/3/3 205/1/3 201/2/3 203/4/3
f 207/4/4 208/3/4 206/1/4 205/2/4
f 208/4/6 204/3/6 202/1/6 206/2/6
f 211/3/1 209/1/1 210/2/1 212/4/1
f 215/3/3 213/1/3 209/2/3 211/4/3
f 215/4/4 216/3/4 214/1/4 213/2/4
f 219/3/1 217/1/1 218/2/1 220/4/1
f 223/3/3 221/1/3 217/2/3 219/4/3
f 223/4/4 224/3/4 222/1/4 221/2/4
f 224/4/6 220/3/6 218/1/6 222/2/6
f 227/3/1 225/1/1 226/2/1 228/4/1
f 231/3/3 229/1/3 225/2/3 227/4/3
f 231/4/4 232/3/4 230/1/4 229/2/4
f 232/4/6 228/3/6 226/1/6 230/2/6
f 235/3/1 233/1/1 234/2/1 236/4/1
f 239/3/3 237/1/3 233/2/3 235/4/3
f 239/4/4 240/3/4 238/1/4 237/2/4
f 243/3/1 241/1/1 242/2/1 244/4/1
f 247/3/3 245/1/3 241/2/3 243/4/3
f 247/4/4 248/3/4 246/1/4 245/2/4
f 248/4/6 244/3/6 242/1/6 246/2/6
f 251/3/1 249/1/1 250/2/1 252/4/1
f 255/3/3 253/1/3 249/2/3 251/4/3
f 255/4/4 256/3/4 254/1/4 253/2/4
f 256/4/6 252/3/6 250/1/6 254/2/6
f 259/3/1 257/1/1 258/2/1 260/4/1
f 263/3/3 261/1/3 257/2/3 259/4/3
f 263/4/4 264/3/4 262/1/4 261/2/4
f 267/3/1 265/1/1 266/2/1 268/4/1
f 271/3/3 269/1/3 265/2/3 267/4/3
f 271/4/4 272/3/4 270/1/4 269/2/4
f 272/4/6 268/3/6 266/1/6 270/2/6
f 275/3/1 273/1/1 274/2/1 276/4/1
f 279/3/3 277/1/3 273/2/3 275/4/3
f 279/4/4 280/3/4 278/1/4 277/2/4
f 280/4/6 276/3/6 274/1/6 278/2/6
f 283/3/1 281/1/1 282/2/1 284/4/1
f 287/3/3 285/1/3 281/2/3 283/4/3
f 287/4/4 288/3/4 286/1/4 285/2/4
