# Wavefront OBJ file made by Mineways version 12.08, http://mineways.com
# World: Temp
# Terrain file name: Z:\home\aik\Applications\mineways\terrainExt.png
# Color scheme: Standard
# Tue Sep 23 21:29:14 2025

# Selection location min to max: 13, 0, 13 to 23, 255, 23
#   Non-empty selection location min to max: 13, 7, 13 to 23, 11, 23

# Set render type: Wavefront OBJ absolute indices
# Units for the model vertex data itself: meters

# 364 vertices, 364 faces (728 triangles), 252 blocks, 0 billboards/bits
# block dimensions: X=11 by Y=5 (height) by Z=11 blocks
# Elevation shading: no
# Lighting: no
# Transparent water: no
# Map grid: no
# File type: Export individual textures to directory tex
# Texture output RGB: YES
# Texture output A: YES
# Texture output RGBA: YES
# Export separate types: YES
# Export individual blocks: no
#   Material per family: YES
#   Split by block type: YES
# Make groups objects: no
# Custom material: YES
# Export lesser blocks: YES
# Fatten lesser blocks: no
# Simplify mesh: no
# Double all billboard faces: no
# Create composite overlay faces: no
# Center model: YES
# Use biomes: no
# Create block faces at the borders: YES
# Tree leaves solid: no
# Rotate model 0.000000 degrees
# Make Z the up direction instead of Y: no
# Scale model by making each block 1000 mm high
# Data operation options:
#   Fill air bubbles: no; Seal off entrances: no; Fill in isolated tunnels in base of model: no
#   Connect parts sharing an edge: no; Connect corner tips: no; Weld all shared edges: no
#   Delete floating objects: trees and parts smaller than 16 blocks: no
#   Hollow out bottom of model, making the walls 1000 mm thick: no; Superhollow: no
# Melt snow blocks: no
#   Debug: show separate parts as colors: no
#   Debug: show weld blocks in bright colors: no

# Full world path: Z:\home\aik\Temps\Temp
# Full terrainExt.png path: Z:\home\aik\Applications\mineways\terrainExt.png
# Full current path: Z:\home\aik\Applications\mineways

# COMMON_MC_OBJ_START
# version: 1
# exporter: mineways
# world_name: Temp
# world_path: Z:\home\aik\Temps\Temp
# export_bounds_min: (13, 0, 13)
# export_bounds_max: (23, 255, 23)
# export_offset: (-18.000000, 0.000000, -18.000000)
# block_scale: 1
# block_origin_offset: (0.000000, 0.000000, 0.000000)
# z_up: false
# texture_type: INDIVIDUAL_TILES
# has_split_blocks: true
# COMMON_MC_OBJ_END

mtllib tempobj.mtl

o Temp__13_0_13_to_23_255_23
vn -1 0 0
vn 0 -1 0
vn 0 0 -1
vn 1 0 0
vn 0 1 0
vn 0 0 1
vn -0.707107 0 -0.707107
vn -0.707107 0 0.707107
vn 0.707107 0 -0.707107
vn 0.707107 0 0.707107
vn -0.707107 -0.707107 0
vn 0 -0.707107 -0.707107
vn 0.707107 -0.707107 0
vn 0 -0.707107 0.707107
vn -0.707107 0.707107 0
vn 0 0.707107 -0.707107
vn 0.707107 0.707107 0
vn 0 0.707107 0.707107
vn -0.92388 0 -0.382683
vn -0.92388 0 0.382683
vn 0.92388 0 -0.382683
vn 0.92388 0 0.382683
vn -0.382683 0 -0.92388
vn -0.382683 0 0.92388
vn 0.382683 0 -0.92388
vn 0.382683 0 0.92388
vn -0.397273 0.9177 0
vn 0.397273 -0.9177 0
vn 0.397273 0.9177 0
vn -0.397273 -0.9177 0
vn 0 0.9177 -0.397273
vn 0 -0.9177 0.397273
vn 0 0.9177 0.397273
vn 0 -0.9177 -0.397273
vn -0.440932 0.897541 0
vn 0.440932 -0.897541 0
vn 0.440932 0.897541 0
vn -0.440932 -0.897541 0
vn 0 0.897541 -0.440932
vn 0 -0.897541 0.440932
vn 0 0.897541 0.440932
vn 0 -0.897541 -0.440932
vt 0.000000000 0.000000000
vt 1.000000000 0.000000000
vt 0.000000000 1.000000000
vt 1.000000000 1.000000000
v -5 7 -5
v -5 7 -4
v -5 8 -4
v -5 8 -5
v -4 7 -4
v -4 7 -5
v -4 8 -5
v -5 9 -4
v -5 9 -5
v -4 9 -5
v -4 9 -4
v -5 7 -3
v -5 8 -3
v -4 7 -3
v -5 9 -3
v -4 9 -3
v -5 7 -2
v -5 8 -2
v -4 7 -2
v -5 9 -2
v -4 9 -2
v -5 7 -1
v -5 8 -1
v -4 7 -1
v -5 9 -1
v -4 9 -1
v -5 7 0
v -5 8 0
v -4 7 0
v -5 9 0
v -4 9 0
v -5 7 1
v -5 8 1
v -4 7 1
v -5 9 1
v -4 9 1
v -5 7 2
v -5 8 2
v -4 7 2
v -5 9 2
v -4 9 2
v -5 7 3
v -5 8 3
v -4 7 3
v -5 9 3
v -4 9 3
v -5 7 4
v -5 8 4
v -4 7 4
v -5 9 4
v -5 10 4
v -5 10 3
v -4 10 3
v -4 9 4
v -4 10 4
v -5 7 5
v -5 8 5
v -4 7 5
v -5 9 5
v -5 10 5
v -4 9 5
v -4 10 5
v -5 7 6
v -5 8 6
v -4 7 6
v -4 8 6
v -5 9 6
v -4 9 6
v -5 10 6
v -4 10 6
v -3 7 -4
v -3 7 -5
v -3 8 -5
v -3 9 -5
v -3 9 -4
v -3 7 -3
v -3 9 -3
v -3 7 -2
v -3 9 -2
v -3 7 -1
v -3 9 -1
v -3 7 0
v -3 9 0
v -3 7 1
v -3 9 1
v -3 7 2
v -3 9 2
v -3 7 3
v -3 9 3
v -3 7 4
v -3 9 4
v -3 7 5
v -3 9 5
v -3 7 6
v -3 8 6
v -3 9 6
v -2 7 -4
v -2 7 -5
v -2 8 -5
v -2 9 -5
v -2 9 -4
v -2 7 -3
v -2 9 -3
v -2 7 -2
v -2 9 -2
v -2 7 -1
v -2 9 -1
v -2 7 0
v -2 9 0
v -2 7 1
v -2 9 1
v -2 7 2
v -2 9 2
v -2 7 3
v -2 9 3
v -2 7 4
v -2 9 4
v -2 7 5
v -2 9 5
v -2 7 6
v -2 8 6
v -2 9 6
v -1 7 -4
v -1 7 -5
v -1 8 -5
v -1 9 -5
v -1 9 -4
v -1 7 -3
v -1 9 -3
v -1 7 -2
v -1 9 -2
v -1 7 -1
v -1 9 -1
v -1 7 0
v -1 9 0
v -1 7 1
v -1 9 1
v -1 7 2
v -1 9 2
v -1 7 3
v -1 9 3
v -1 7 4
v -1 9 4
v -1 7 5
v -1 9 5
v -1 7 6
v -1 8 6
v -1 9 6
v 0 7 -4
v 0 7 -5
v 0 8 -5
v 0 9 -5
v 0 9 -4
v 0 7 -3
v 0 9 -3
v 0 7 -2
v 0 9 -2
v 0 7 -1
v 0 9 -1
v 0 7 0
v 0 9 0
v 0 7 1
v 0 9 1
v 0 7 2
v 0 9 2
v 0 7 3
v 0 9 3
v 0 7 4
v 0 9 4
v 0 7 5
v 0 9 5
v 0 7 6
v 0 8 6
v 0 9 6
v 1 7 -4
v 1 7 -5
v 1 8 -5
v 1 9 -5
v 1 9 -4
v 1 7 -3
v 1 9 -3
v 1 7 -2
v 1 9 -2
v 1 7 -1
v 1 9 -1
v 1 7 0
v 1 9 0
v 1 7 1
v 1 9 1
v 1 7 2
v 1 9 2
v 1 7 3
v 1 9 3
v 1 7 4
v 1 9 4
v 1 7 5
v 1 9 5
v 1 7 6
v 1 8 6
v 1 9 6
v 2 7 -4
v 2 7 -5
v 2 8 -5
v 2 9 -5
v 2 9 -4
v 2 7 -3
v 2 9 -3
v 2 7 -2
v 2 9 -2
v 2 7 -1
v 2 9 -1
v 2 7 0
v 2 9 0
v 2 7 1
v 2 9 1
v 2 7 2
v 2 9 2
v 2 7 3
v 2 9 3
v 2 7 4
v 2 9 4
v 2 7 5
v 2 9 5
v 2 7 6
v 2 8 6
v 2 9 6
v 3 7 -4
v 3 7 -5
v 3 8 -5
v 3 9 -5
v 3 9 -4
v 3 7 -3
v 3 9 -3
v 3 7 -2
v 3 9 -2
v 3 7 -1
v 3 9 -1
v 3 7 0
v 3 9 0
v 3 7 1
v 3 9 1
v 3 7 2
v 3 9 2
v 3 7 3
v 3 9 3
v 3 7 4
v 3 9 4
v 3 7 5
v 3 9 5
v 3 7 6
v 3 8 6
v 3 9 6
v 4 7 -4
v 4 7 -5
v 4 8 -5
v 4 9 -5
v 4 9 -4
v 4 7 -3
v 4 9 -3
v 4 7 -2
v 4 9 -2
v 4 7 -1
v 4 9 -1
v 4 7 0
v 4 9 0
v 4 7 1
v 4 9 1
v 4 7 2
v 4 9 2
v 4 7 3
v 4 9 3
v 4 7 4
v 4 9 4
v 4 7 5
v 4 9 5
v 4 7 6
v 4 8 6
v 4 9 6
v 5 7 -4
v 5 7 -5
v 5 8 -5
v 5 9 -5
v 5 9 -4
v 5 7 -3
v 5 9 -3
v 5 7 -2
v 5 9 -2
v 5 7 -1
v 5 9 -1
v 5 7 0
v 5 9 0
v 5 7 1
v 5 9 1
v 5 7 2
v 5 9 2
v 5 7 3
v 5 9 3
v 5 7 4
v 5 9 4
v 5 7 5
v 5 9 5
v 5 7 6
v 5 8 6
v 5 9 6
v 6 7 -4
v 6 7 -5
v 6 8 -5
v 6 8 -4
v 6 9 -5
v 6 9 -4
v 5 10 -4
v 5 10 -5
v 6 10 -5
v 6 10 -4
v 6 7 -3
v 6 8 -3
v 6 9 -3
v 5 10 -3
v 6 10 -3
v 6 7 -2
v 6 8 -2
v 6 9 -2
v 5 10 -2
v 6 10 -2
v 6 7 -1
v 6 8 -1
v 6 9 -1
v 6 7 0
v 6 8 0
v 6 9 0
v 5 10 0
v 5 10 -1
v 6 10 -1
v 6 10 0
v 6 7 1
v 6 8 1
v 6 9 1
v 5 10 1
v 5 11 1
v 5 11 0
v 6 10 1
v 6 11 0
v 6 11 1
v 5 12 1
v 5 12 0
v 6 12 0
v 6 12 1
v 6 7 2
v 6 8 2
v 6 9 2
v 5 10 2
v 6 10 2
v 6 7 3
v 6 8 3
v 6 9 3
v 6 7 4
v 6 8 4
v 6 9 4
v 6 7 5
v 6 8 5
v 6 9 5
v 6 7 6
v 6 8 6
v 6 9 6

g Oak_Planks
usemtl oak_planks
f 50/2/1 51/4/1 52/3/1 45/1/1
f 45/2/3 52/4/3 53/3/3 46/1/3
f 54/1/4 46/2/4 53/4/4 55/3/4
f 51/1/5 55/2/5 53/4/5 52/3/5
f 59/2/1 60/4/1 51/3/1 50/1/1
f 61/1/4 54/2/4 55/4/4 62/3/4
f 60/1/5 62/2/5 55/4/5 51/3/5
f 67/2/1 69/4/1 60/3/1 59/1/1
f 68/1/4 61/2/4 62/4/4 70/3/4
f 69/1/5 70/2/5 62/4/5 60/3/5
f 67/1/6 68/2/6 70/4/6 69/3/6

g Gold_Ore
usemtl gold_ore
f 283/2/1 311/4/1 312/3/1 282/1/1
f 282/2/3 312/4/3 313/3/3 309/1/3
f 310/1/4 309/2/4 313/4/4 314/3/4
f 311/1/5 314/2/5 313/4/5 312/3/5
f 285/2/1 318/4/1 311/3/1 283/1/1
f 317/1/4 310/2/4 314/4/4 319/3/4
f 318/1/5 319/2/5 314/4/5 311/3/5
f 287/2/1 323/4/1 318/3/1 285/1/1
f 322/1/4 317/2/4 319/4/4 324/3/4
f 323/1/5 324/2/5 319/4/5 318/3/5
f 287/1/6 322/2/6 324/4/6 323/3/6

g Yellow_Wool
usemtl yellow_wool
f 291/2/1 331/4/1 332/3/1 289/1/1
f 289/2/3 332/4/3 333/3/3 327/1/3
f 330/1/4 327/2/4 333/4/4 334/3/4
f 331/1/5 334/2/5 333/4/5 332/3/5
f 291/1/6 330/2/6 334/4/6 331/3/6
f 338/2/1 339/4/1 340/3/1 331/1/1
f 338/3/2 331/1/2 334/2/2 341/4/2
f 331/2/3 340/4/3 342/3/3 334/1/3
f 341/1/4 334/2/4 342/4/4 343/3/4
f 338/1/6 341/2/6 343/4/6 339/3/6
f 339/2/1 344/4/1 345/3/1 340/1/1
f 340/2/3 345/4/3 346/3/3 342/1/3
f 343/1/4 342/2/4 346/4/4 347/3/4
f 344/1/5 347/2/5 346/4/5 345/3/5
f 339/1/6 343/2/6 347/4/6 344/3/6
f 295/2/1 351/4/1 338/3/1 293/1/1
f 293/2/3 338/4/3 341/3/3 337/1/3
f 350/1/4 337/2/4 341/4/4 352/3/4
f 351/1/5 352/2/5 341/4/5 338/3/5
f 295/1/6 350/2/6 352/4/6 351/3/6

g Block_of_Iron
usemtl iron_block
f 3/2/1 8/4/1 9/3/1 4/1/1
f 4/2/3 9/4/3 10/3/3 7/1/3
f 8/1/5 11/2/5 10/4/5 9/3/5
f 13/2/1 15/4/1 8/3/1 3/1/1
f 15/1/5 16/2/5 11/4/5 8/3/5
f 18/2/1 20/4/1 15/3/1 13/1/1
f 20/1/5 21/2/5 16/4/5 15/3/5
f 23/2/1 25/4/1 20/3/1 18/1/1
f 25/1/5 26/2/5 21/4/5 20/3/5
f 28/2/1 30/4/1 25/3/1 23/1/1
f 30/1/5 31/2/5 26/4/5 25/3/5
f 33/2/1 35/4/1 30/3/1 28/1/1
f 35/1/5 36/2/5 31/4/5 30/3/5
f 38/2/1 40/4/1 35/3/1 33/1/1
f 40/1/5 41/2/5 36/4/5 35/3/5
f 43/2/1 45/4/1 40/3/1 38/1/1
f 45/1/5 46/2/5 41/4/5 40/3/5
f 48/2/1 50/4/1 45/3/1 43/1/1
f 57/2/1 59/4/1 50/3/1 48/1/1
f 64/2/1 67/4/1 59/3/1 57/1/1
f 64/1/6 66/2/6 68/4/6 67/3/6
f 7/2/3 10/4/3 74/3/3 73/1/3
f 11/1/5 75/2/5 74/4/5 10/3/5
f 16/1/5 77/2/5 75/4/5 11/3/5
f 21/1/5 79/2/5 77/4/5 16/3/5
f 26/1/5 81/2/5 79/4/5 21/3/5
f 31/1/5 83/2/5 81/4/5 26/3/5
f 36/1/5 85/2/5 83/4/5 31/3/5
f 41/1/5 87/2/5 85/4/5 36/3/5
f 46/1/5 89/2/5 87/4/5 41/3/5
f 54/1/5 91/2/5 89/4/5 46/3/5
f 61/1/5 93/2/5 91/4/5 54/3/5
f 68/1/5 96/2/5 93/4/5 61/3/5
f 66/1/6 95/2/6 96/4/6 68/3/6
f 73/2/3 74/4/3 100/3/3 99/1/3
f 75/1/5 101/2/5 100/4/5 74/3/5
f 77/1/5 103/2/5 101/4/5 75/3/5
f 79/1/5 105/2/5 103/4/5 77/3/5
f 81/1/5 107/2/5 105/4/5 79/3/5
f 83/1/5 109/2/5 107/4/5 81/3/5
f 85/1/5 111/2/5 109/4/5 83/3/5
f 87/1/5 113/2/5 111/4/5 85/3/5
f 89/1/5 115/2/5 113/4/5 87/3/5
f 91/1/5 117/2/5 115/4/5 89/3/5
f 93/1/5 119/2/5 117/4/5 91/3/5
f 96/1/5 122/2/5 119/4/5 93/3/5
f 95/1/6 121/2/6 122/4/6 96/3/6
f 99/2/3 100/4/3 126/3/3 125/1/3
f 101/1/5 127/2/5 126/4/5 100/3/5
f 103/1/5 129/2/5 127/4/5 101/3/5
f 105/1/5 131/2/5 129/4/5 103/3/5
f 107/1/5 133/2/5 131/4/5 105/3/5
f 109/1/5 135/2/5 133/4/5 107/3/5
f 111/1/5 137/2/5 135/4/5 109/3/5
f 113/1/5 139/2/5 137/4/5 111/3/5
f 115/1/5 141/2/5 139/4/5 113/3/5
f 117/1/5 143/2/5 141/4/5 115/3/5
f 119/1/5 145/2/5 143/4/5 117/3/5
f 122/1/5 148/2/5 145/4/5 119/3/5
f 121/1/6 147/2/6 148/4/6 122/3/6
f 125/2/3 126/4/3 152/3/3 151/1/3
f 127/1/5 153/2/5 152/4/5 126/3/5
f 129/1/5 155/2/5 153/4/5 127/3/5
f 131/1/5 157/2/5 155/4/5 129/3/5
f 133/1/5 159/2/5 157/4/5 131/3/5
f 135/1/5 161/2/5 159/4/5 133/3/5
f 137/1/5 163/2/5 161/4/5 135/3/5
f 139/1/5 165/2/5 163/4/5 137/3/5
f 141/1/5 167/2/5 165/4/5 139/3/5
f 143/1/5 169/2/5 167/4/5 141/3/5
f 145/1/5 171/2/5 169/4/5 143/3/5
f 148/1/5 174/2/5 171/4/5 145/3/5
f 147/1/6 173/2/6 174/4/6 148/3/6
f 151/2/3 152/4/3 178/3/3 177/1/3
f 153/1/5 179/2/5 178/4/5 152/3/5
f 155/1/5 181/2/5 179/4/5 153/3/5
f 157/1/5 183/2/5 181/4/5 155/3/5
f 159/1/5 185/2/5 183/4/5 157/3/5
f 161/1/5 187/2/5 185/4/5 159/3/5
f 163/1/5 189/2/5 187/4/5 161/3/5
f 165/1/5 191/2/5 189/4/5 163/3/5
f 167/1/5 193/2/5 191/4/5 165/3/5
f 169/1/5 195/2/5 193/4/5 167/3/5
f 171/1/5 197/2/5 195/4/5 169/3/5
f 174/1/5 200/2/5 197/4/5 171/3/5
f 173/1/6 199/2/6 200/4/6 174/3/6
f 177/2/3 178/4/3 204/3/3 203/1/3
f 179/1/5 205/2/5 204/4/5 178/3/5
f 181/1/5 207/2/5 205/4/5 179/3/5
f 183/1/5 209/2/5 207/4/5 181/3/5
f 185/1/5 211/2/5 209/4/5 183/3/5
f 187/1/5 213/2/5 211/4/5 185/3/5
f 189/1/5 215/2/5 213/4/5 187/3/5
f 191/1/5 217/2/5 215/4/5 189/3/5
f 193/1/5 219/2/5 217/4/5 191/3/5
f 195/1/5 221/2/5 219/4/5 193/3/5
f 197/1/5 223/2/5 221/4/5 195/3/5
f 200/1/5 226/2/5 223/4/5 197/3/5
f 199/1/6 225/2/6 226/4/6 200/3/6
f 203/2/3 204/4/3 230/3/3 229/1/3
f 205/1/5 231/2/5 230/4/5 204/3/5
f 207/1/5 233/2/5 231/4/5 205/3/5
f 209/1/5 235/2/5 233/4/5 207/3/5
f 211/1/5 237/2/5 235/4/5 209/3/5
f 213/1/5 239/2/5 237/4/5 211/3/5
f 215/1/5 241/2/5 239/4/5 213/3/5
f 217/1/5 243/2/5 241/4/5 215/3/5
f 219/1/5 245/2/5 243/4/5 217/3/5
f 221/1/5 247/2/5 245/4/5 219/3/5
f 223/1/5 249/2/5 247/4/5 221/3/5
f 226/1/5 252/2/5 249/4/5 223/3/5
f 225/1/6 251/2/6 252/4/6 226/3/6
f 229/2/3 230/4/3 256/3/3 255/1/3
f 231/1/5 257/2/5 256/4/5 230/3/5
f 233/1/5 259/2/5 257/4/5 231/3/5
f 235/1/5 261/2/5 259/4/5 233/3/5
f 237/1/5 263/2/5 261/4/5 235/3/5
f 239/1/5 265/2/5 263/4/5 237/3/5
f 241/1/5 267/2/5 265/4/5 239/3/5
f 243/1/5 269/2/5 267/4/5 241/3/5
f 245/1/5 271/2/5 269/4/5 243/3/5
f 247/1/5 273/2/5 271/4/5 245/3/5
f 249/1/5 275/2/5 273/4/5 247/3/5
f 252/1/5 278/2/5 275/4/5 249/3/5
f 251/1/6 277/2/6 278/4/6 252/3/6
f 255/2/3 256/4/3 282/3/3 281/1/3
f 257/1/5 283/2/5 282/4/5 256/3/5
f 259/1/5 285/2/5 283/4/5 257/3/5
f 261/1/5 287/2/5 285/4/5 259/3/5
f 263/1/5 289/2/5 287/4/5 261/3/5
f 265/1/5 291/2/5 289/4/5 263/3/5
f 267/1/5 293/2/5 291/4/5 265/3/5
f 269/1/5 295/2/5 293/4/5 267/3/5
f 271/1/5 297/2/5 295/4/5 269/3/5
f 273/1/5 299/2/5 297/4/5 271/3/5
f 275/1/5 301/2/5 299/4/5 273/3/5
f 278/1/5 304/2/5 301/4/5 275/3/5
f 277/1/6 303/2/6 304/4/6 278/3/6
f 281/2/3 282/4/3 309/3/3 307/1/3
f 308/1/4 307/2/4 309/4/4 310/3/4
f 316/1/4 308/2/4 310/4/4 317/3/4
f 321/1/4 316/2/4 317/4/4 322/3/4
f 326/1/4 321/2/4 322/4/4 327/3/4
f 289/1/5 327/2/5 322/4/5 287/3/5
f 329/1/4 326/2/4 327/4/4 330/3/4
f 336/1/4 329/2/4 330/4/4 337/3/4
f 293/1/5 337/2/5 330/4/5 291/3/5
f 349/1/4 336/2/4 337/4/4 350/3/4
f 354/1/4 349/2/4 350/4/4 355/3/4
f 297/1/5 355/2/5 350/4/5 295/3/5
f 357/1/4 354/2/4 355/4/4 358/3/4
f 299/1/5 358/2/5 355/4/5 297/3/5
f 360/1/4 357/2/4 358/4/4 361/3/4
f 301/1/5 361/2/5 358/4/5 299/3/5
f 363/1/4 360/2/4 361/4/4 364/3/4
f 304/1/5 364/2/5 361/4/5 301/3/5
f 303/1/6 363/2/6 364/4/6 304/3/6

g Bricks
usemtl bricks
f 2/2/1 3/4/1 4/3/1 1/1/1
f 2/3/2 1/1/2 6/2/2 5/4/2
f 1/2/3 4/4/3 7/3/3 6/1/3
f 12/2/1 13/4/1 3/3/1 2/1/1
f 12/3/2 2/1/2 5/2/2 14/4/2
f 17/2/1 18/4/1 13/3/1 12/1/1
f 17/3/2 12/1/2 14/2/2 19/4/2
f 22/2/1 23/4/1 18/3/1 17/1/1
f 22/3/2 17/1/2 19/2/2 24/4/2
f 27/2/1 28/4/1 23/3/1 22/1/1
f 27/3/2 22/1/2 24/2/2 29/4/2
f 32/2/1 33/4/1 28/3/1 27/1/1
f 32/3/2 27/1/2 29/2/2 34/4/2
f 37/2/1 38/4/1 33/3/1 32/1/1
f 37/3/2 32/1/2 34/2/2 39/4/2
f 42/2/1 43/4/1 38/3/1 37/1/1
f 42/3/2 37/1/2 39/2/2 44/4/2
f 47/2/1 48/4/1 43/3/1 42/1/1
f 47/3/2 42/1/2 44/2/2 49/4/2
f 56/2/1 57/4/1 48/3/1 47/1/1
f 56/3/2 47/1/2 49/2/2 58/4/2
f 63/2/1 64/4/1 57/3/1 56/1/1
f 63/3/2 56/1/2 58/2/2 65/4/2
f 63/1/6 65/2/6 66/4/6 64/3/6
f 5/3/2 6/1/2 72/2/2 71/4/2
f 6/2/3 7/4/3 73/3/3 72/1/3
f 14/3/2 5/1/2 71/2/2 76/4/2
f 19/3/2 14/1/2 76/2/2 78/4/2
f 24/3/2 19/1/2 78/2/2 80/4/2
f 29/3/2 24/1/2 80/2/2 82/4/2
f 34/3/2 29/1/2 82/2/2 84/4/2
f 39/3/2 34/1/2 84/2/2 86/4/2
f 44/3/2 39/1/2 86/2/2 88/4/2
f 49/3/2 44/1/2 88/2/2 90/4/2
f 58/3/2 49/1/2 90/2/2 92/4/2
f 65/3/2 58/1/2 92/2/2 94/4/2
f 65/1/6 94/2/6 95/4/6 66/3/6
f 71/3/2 72/1/2 98/2/2 97/4/2
f 72/2/3 73/4/3 99/3/3 98/1/3
f 76/3/2 71/1/2 97/2/2 102/4/2
f 78/3/2 76/1/2 102/2/2 104/4/2
f 80/3/2 78/1/2 104/2/2 106/4/2
f 82/3/2 80/1/2 106/2/2 108/4/2
f 84/3/2 82/1/2 108/2/2 110/4/2
f 86/3/2 84/1/2 110/2/2 112/4/2
f 88/3/2 86/1/2 112/2/2 114/4/2
f 90/3/2 88/1/2 114/2/2 116/4/2
f 92/3/2 90/1/2 116/2/2 118/4/2
f 94/3/2 92/1/2 118/2/2 120/4/2
f 94/1/6 120/2/6 121/4/6 95/3/6
f 97/3/2 98/1/2 124/2/2 123/4/2
f 98/2/3 99/4/3 125/3/3 124/1/3
f 102/3/2 97/1/2 123/2/2 128/4/2
f 104/3/2 102/1/2 128/2/2 130/4/2
f 106/3/2 104/1/2 130/2/2 132/4/2
f 108/3/2 106/1/2 132/2/2 134/4/2
f 110/3/2 108/1/2 134/2/2 136/4/2
f 112/3/2 110/1/2 136/2/2 138/4/2
f 114/3/2 112/1/2 138/2/2 140/4/2
f 116/3/2 114/1/2 140/2/2 142/4/2
f 118/3/2 116/1/2 142/2/2 144/4/2
f 120/3/2 118/1/2 144/2/2 146/4/2
f 120/1/6 146/2/6 147/4/6 121/3/6
f 123/3/2 124/1/2 150/2/2 149/4/2
f 124/2/3 125/4/3 151/3/3 150/1/3
f 128/3/2 123/1/2 149/2/2 154/4/2
f 130/3/2 128/1/2 154/2/2 156/4/2
f 132/3/2 130/1/2 156/2/2 158/4/2
f 134/3/2 132/1/2 158/2/2 160/4/2
f 136/3/2 134/1/2 160/2/2 162/4/2
f 138/3/2 136/1/2 162/2/2 164/4/2
f 140/3/2 138/1/2 164/2/2 166/4/2
f 142/3/2 140/1/2 166/2/2 168/4/2
f 144/3/2 142/1/2 168/2/2 170/4/2
f 146/3/2 144/1/2 170/2/2 172/4/2
f 146/1/6 172/2/6 173/4/6 147/3/6
f 149/3/2 150/1/2 176/2/2 175/4/2
f 150/2/3 151/4/3 177/3/3 176/1/3
f 154/3/2 149/1/2 175/2/2 180/4/2
f 156/3/2 154/1/2 180/2/2 182/4/2
f 158/3/2 156/1/2 182/2/2 184/4/2
f 160/3/2 158/1/2 184/2/2 186/4/2
f 162/3/2 160/1/2 186/2/2 188/4/2
f 164/3/2 162/1/2 188/2/2 190/4/2
f 166/3/2 164/1/2 190/2/2 192/4/2
f 168/3/2 166/1/2 192/2/2 194/4/2
f 170/3/2 168/1/2 194/2/2 196/4/2
f 172/3/2 170/1/2 196/2/2 198/4/2
f 172/1/6 198/2/6 199/4/6 173/3/6
f 175/3/2 176/1/2 202/2/2 201/4/2
f 176/2/3 177/4/3 203/3/3 202/1/3
f 180/3/2 175/1/2 201/2/2 206/4/2
f 182/3/2 180/1/2 206/2/2 208/4/2
f 184/3/2 182/1/2 208/2/2 210/4/2
f 186/3/2 184/1/2 210/2/2 212/4/2
f 188/3/2 186/1/2 212/2/2 214/4/2
f 190/3/2 188/1/2 214/2/2 216/4/2
f 192/3/2 190/1/2 216/2/2 218/4/2
f 194/3/2 192/1/2 218/2/2 220/4/2
f 196/3/2 194/1/2 220/2/2 222/4/2
f 198/3/2 196/1/2 222/2/2 224/4/2
f 198/1/6 224/2/6 225/4/6 199/3/6
f 201/3/2 202/1/2 228/2/2 227/4/2
f 202/2/3 203/4/3 229/3/3 228/1/3
f 206/3/2 201/1/2 227/2/2 232/4/2
f 208/3/2 206/1/2 232/2/2 234/4/2
f 210/3/2 208/1/2 234/2/2 236/4/2
f 212/3/2 210/1/2 236/2/2 238/4/2
f 214/3/2 212/1/2 238/2/2 240/4/2
f 216/3/2 214/1/2 240/2/2 242/4/2
f 218/3/2 216/1/2 242/2/2 244/4/2
f 220/3/2 218/1/2 244/2/2 246/4/2
f 222/3/2 220/1/2 246/2/2 248/4/2
f 224/3/2 222/1/2 248/2/2 250/4/2
f 224/1/6 250/2/6 251/4/6 225/3/6
f 227/3/2 228/1/2 254/2/2 253/4/2
f 228/2/3 229/4/3 255/3/3 254/1/3
f 232/3/2 227/1/2 253/2/2 258/4/2
f 234/3/2 232/1/2 258/2/2 260/4/2
f 236/3/2 234/1/2 260/2/2 262/4/2
f 238/3/2 236/1/2 262/2/2 264/4/2
f 240/3/2 238/1/2 264/2/2 266/4/2
f 242/3/2 240/1/2 266/2/2 268/4/2
f 244/3/2 242/1/2 268/2/2 270/4/2
f 246/3/2 244/1/2 270/2/2 272/4/2
f 248/3/2 246/1/2 272/2/2 274/4/2
f 250/3/2 248/1/2 274/2/2 276/4/2
f 250/1/6 276/2/6 277/4/6 251/3/6
f 253/3/2 254/1/2 280/2/2 279/4/2
f 254/2/3 255/4/3 281/3/3 280/1/3
f 258/3/2 253/1/2 279/2/2 284/4/2
f 260/3/2 258/1/2 284/2/2 286/4/2
f 262/3/2 260/1/2 286/2/2 288/4/2
f 264/3/2 262/1/2 288/2/2 290/4/2
f 266/3/2 264/1/2 290/2/2 292/4/2
f 268/3/2 266/1/2 292/2/2 294/4/2
f 270/3/2 268/1/2 294/2/2 296/4/2
f 272/3/2 270/1/2 296/2/2 298/4/2
f 274/3/2 272/1/2 298/2/2 300/4/2
f 276/3/2 274/1/2 300/2/2 302/4/2
f 276/1/6 302/2/6 303/4/6 277/3/6
f 279/3/2 280/1/2 306/2/2 305/4/2
f 280/2/3 281/4/3 307/3/3 306/1/3
f 305/1/4 306/2/4 307/4/4 308/3/4
f 284/3/2 279/1/2 305/2/2 315/4/2
f 315/1/4 305/2/4 308/4/4 316/3/4
f 286/3/2 284/1/2 315/2/2 320/4/2
f 320/1/4 315/2/4 316/4/4 321/3/4
f 288/3/2 286/1/2 320/2/2 325/4/2
f 325/1/4 320/2/4 321/4/4 326/3/4
f 290/3/2 288/1/2 325/2/2 328/4/2
f 328/1/4 325/2/4 326/4/4 329/3/4
f 292/3/2 290/1/2 328/2/2 335/4/2
f 335/1/4 328/2/4 329/4/4 336/3/4
f 294/3/2 292/1/2 335/2/2 348/4/2
f 348/1/4 335/2/4 336/4/4 349/3/4
f 296/3/2 294/1/2 348/2/2 353/4/2
f 353/1/4 348/2/4 349/4/4 354/3/4
f 298/3/2 296/1/2 353/2/2 356/4/2
f 356/1/4 353/2/4 354/4/4 357/3/4
f 300/3/2 298/1/2 356/2/2 359/4/2
f 359/1/4 356/2/4 357/4/4 360/3/4
f 302/3/2 300/1/2 359/2/2 362/4/2
f 362/1/4 359/2/4 360/4/4 363/3/4
f 302/1/6 362/2/6 363/4/6 303/3/6
